<svg version="1.1" viewBox="0.0 0.0 944.8818897637796 944.8818897637796" fill="none" stroke="none" stroke-linecap="square" stroke-miterlimit="10" xmlns:xlink="http://www.w3.org/1999/xlink" xmlns="http://www.w3.org/2000/svg"><clipPath id="p.0"><path d="m0 0l944.8819 0l0 944.8819l-944.8819 0l0 -944.8819z" clip-rule="nonzero"/></clipPath><g clip-path="url(#p.0)"><path fill="#000000" fill-opacity="0.0" d="m0 0l944.8819 0l0 944.8819l-944.8819 0z" fill-rule="evenodd"/><path fill="#000000" fill-opacity="0.0" d="m14.566929 472.44095l0 0c0 -252.87685 204.99718 -457.87402 457.87402 -457.87402l0 0c121.43576 0 237.8978 48.240158 323.76584 134.1082c85.86804 85.86803 134.10815 202.3301 134.10815 323.7658l0 0c0 252.87686 -204.99713 457.874 -457.874 457.874l0 0c-252.87685 0 -457.87402 -204.99713 -457.87402 -457.874z" fill-rule="evenodd"/><path stroke="#990000" stroke-width="24.0" stroke-linejoin="round" stroke-linecap="butt" d="m14.566929 472.44095l0 0c0 -252.87685 204.99718 -457.87402 457.87402 -457.87402l0 0c121.43576 0 237.8978 48.240158 323.76584 134.1082c85.86804 85.86803 134.10815 202.3301 134.10815 323.7658l0 0c0 252.87686 -204.99713 457.874 -457.874 457.874l0 0c-252.87685 0 -457.87402 -204.99713 -457.87402 -457.874z" fill-rule="evenodd"/><path fill="#000000" fill-opacity="0.0" d="m37.43307 472.44095l0 0c0 -240.24821 194.75966 -435.00787 435.00787 -435.00787l0 0c115.37125 0 226.01724 45.83106 307.59702 127.41086c81.57977 81.57979 127.41083 192.22574 127.41083 307.59702l0 0c0 240.2482 -194.75964 435.00784 -435.00784 435.00784l0 0c-240.24821 0 -435.00787 -194.75964 -435.00787 -435.00784z" fill-rule="evenodd"/><path stroke="#990000" stroke-width="24.0" stroke-linejoin="round" stroke-linecap="butt" d="m37.43307 472.44095l0 0c0 -240.24821 194.75966 -435.00787 435.00787 -435.00787l0 0c115.37125 0 226.01724 45.83106 307.59702 127.41086c81.57977 81.57979 127.41083 192.22574 127.41083 307.59702l0 0c0 240.2482 -194.75964 435.00784 -435.00784 435.00784l0 0c-240.24821 0 -435.00787 -194.75964 -435.00787 -435.00784z" fill-rule="evenodd"/><path fill="#000000" d="m52.330708 472.44095l0 0c0 -232.02048 188.08977 -420.11023 420.11023 -420.11023l0 0c111.420135 0 218.27682 44.261486 297.06277 123.04744c78.78595 78.78595 123.047485 185.64264 123.047485 297.0628l0 0c0 232.02048 -188.08978 420.11026 -420.11026 420.11026l0 0c-232.02048 0 -420.11023 -188.08978 -420.11023 -420.11026z" fill-rule="evenodd"/><path stroke="#990000" stroke-width="24.0" stroke-linejoin="round" stroke-linecap="butt" d="m52.330708 472.44095l0 0c0 -232.02048 188.08977 -420.11023 420.11023 -420.11023l0 0c111.420135 0 218.27682 44.261486 297.06277 123.04744c78.78595 78.78595 123.047485 185.64264 123.047485 297.0628l0 0c0 232.02048 -188.08978 420.11026 -420.11026 420.11026l0 0c-232.02048 0 -420.11023 -188.08978 -420.11023 -420.11026z" fill-rule="evenodd"/><path fill="#000000" fill-opacity="0.0" d="m703.1887 686.4073l0 0c-88.17639 93.00165 -224.60071 123.77936 -344.83722 77.7962c-120.23651 -45.983154 -200.22636 -159.52606 -202.18886 -287.0004c-1.9625092 -127.474335 74.49504 -243.37288 193.26033 -292.95465c118.76526 -49.581757 256.0738 -22.925598 347.0722 67.37828l-224.05423 220.81421z" fill-rule="evenodd"/><path fill="#000000" fill-opacity="0.0" d="m703.1887 686.4073l0 0c-88.17639 93.00165 -224.60071 123.77936 -344.83722 77.7962c-120.23651 -45.983154 -200.22636 -159.52606 -202.18886 -287.0004c-1.9625092 -127.474335 74.49504 -243.37288 193.26033 -292.95465c118.76526 -49.581757 256.0738 -22.925598 347.0722 67.37828" fill-rule="evenodd"/><path stroke="#ffffff" stroke-width="24.0" stroke-linejoin="round" stroke-linecap="butt" d="m703.1887 686.4073l0 0c-88.17639 93.00165 -224.60071 123.77936 -344.83722 77.7962c-120.23651 -45.983154 -200.22636 -159.52606 -202.18886 -287.0004c-1.9625092 -127.474335 74.49504 -243.37288 193.26033 -292.95465c118.76526 -49.581757 256.0738 -22.925598 347.0722 67.37828" fill-rule="evenodd"/><path fill="#000000" fill-opacity="0.0" d="m688.48895 672.77466l0 0c-82.557434 87.07385 -210.28781 115.88959 -322.86185 72.836975c-112.574036 -43.052673 -187.4662 -149.35901 -189.30363 -268.70874c-1.8374329 -119.34973 69.74753 -227.86154 180.94408 -274.28342c111.19656 -46.42189 239.75479 -21.465042 324.95438 63.083008l-209.7753 206.74176z" fill-rule="evenodd"/><path fill="#000000" fill-opacity="0.0" d="m688.48895 672.77466l0 0c-82.557434 87.07385 -210.28781 115.88959 -322.86185 72.836975c-112.574036 -43.052673 -187.4662 -149.35901 -189.30363 -268.70874c-1.8374329 -119.34973 69.74753 -227.86154 180.94408 -274.28342c111.19656 -46.42189 239.75479 -21.465042 324.95438 63.083008" fill-rule="evenodd"/><path stroke="#ffffff" stroke-width="24.0" stroke-linejoin="round" stroke-linecap="butt" d="m688.48895 672.77466l0 0c-82.557434 87.07385 -210.28781 115.88959 -322.86185 72.836975c-112.574036 -43.052673 -187.4662 -149.35901 -189.30363 -268.70874c-1.8374329 -119.34973 69.74753 -227.86154 180.94408 -274.28342c111.19656 -46.42189 239.75479 -21.465042 324.95438 63.083008" fill-rule="evenodd"/><path fill="#000000" fill-opacity="0.0" d="m680.0795 664.9754c-79.34412 83.6839 -202.10263 111.37756 -310.29468 70.00079c-108.19208 -41.37671 -180.16898 -143.54456 -181.93489 -258.24805c-1.7659149 -114.70343 67.03253 -218.99088 173.90071 -263.6057c106.868164 -44.614822 230.4223 -20.629791 312.3058 60.62657l-201.60956 198.69406z" fill-rule="evenodd"/><path fill="#000000" fill-opacity="0.0" d="m680.0795 664.9754c-79.34412 83.6839 -202.10263 111.37756 -310.29468 70.00079c-108.19208 -41.37671 -180.16898 -143.54456 -181.93489 -258.24805c-1.7659149 -114.70343 67.03253 -218.99088 173.90071 -263.6057c106.868164 -44.614822 230.4223 -20.629791 312.3058 60.62657" fill-rule="evenodd"/><path stroke="#ffffff" stroke-width="24.0" stroke-linejoin="round" stroke-linecap="butt" d="m680.0795 664.9754c-79.34412 83.6839 -202.10263 111.37756 -310.29468 70.00079c-108.19208 -41.37671 -180.16898 -143.54456 -181.93489 -258.24805c-1.7659149 -114.70343 67.03253 -218.99088 173.90071 -263.6057c106.868164 -44.614822 230.4223 -20.629791 312.3058 60.62657" fill-rule="evenodd"/><path fill="#990000" d="m669.53394 655.2015c-76.706604 77.17352 -194.0628 101.98004 -297.13092 62.806824c-103.068115 -39.173218 -171.45183 -134.57404 -173.13884 -241.54279c-1.687027 -106.96875 63.65648 -204.33716 165.44145 -246.52441c101.78494 -42.187256 219.86896 -20.844864 298.9737 54.036224l-191.23425 188.46881z" fill-rule="evenodd"/><path fill="#000000" fill-opacity="0.0" d="m669.53394 655.2015c-76.706604 77.17352 -194.0628 101.98004 -297.13092 62.806824c-103.068115 -39.173218 -171.45183 -134.57404 -173.13884 -241.54279c-1.687027 -106.96875 63.65648 -204.33716 165.44145 -246.52441c101.78494 -42.187256 219.86896 -20.844864 298.9737 54.036224" fill-rule="evenodd"/><path stroke="#ffffff" stroke-width="24.0" stroke-linejoin="round" stroke-linecap="butt" d="m669.53394 655.2015c-76.706604 77.17352 -194.0628 101.98004 -297.13092 62.806824c-103.068115 -39.173218 -171.45183 -134.57404 -173.13884 -241.54279c-1.687027 -106.96875 63.65648 -204.33716 165.44145 -246.52441c101.78494 -42.187256 219.86896 -20.844864 298.9737 54.036224" fill-rule="evenodd"/></g></svg>